<svg id="visual" viewBox="0 0 900 600" width="900" height="600" xmlns="http://www.w3.org/2000/svg" xmlns:xlink="http://www.w3.org/1999/xlink" version="1.1"><path d="M0 229L13.7 226C27.3 223 54.7 217 82 203C109.3 189 136.7 167 163.8 158C191 149 218 153 245.2 159C272.3 165 299.7 173 327 177C354.3 181 381.7 181 409 187C436.3 193 463.7 205 491 211C518.3 217 545.7 217 573 220C600.3 223 627.7 229 654.8 224C682 219 709 203 736.2 196C763.3 189 790.7 191 818 183C845.3 175 872.7 157 886.3 148L900 139L900 0L886.3 0C872.7 0 845.3 0 818 0C790.7 0 763.3 0 736.2 0C709 0 682 0 654.8 0C627.7 0 600.3 0 573 0C545.7 0 518.3 0 491 0C463.7 0 436.3 0 409 0C381.7 0 354.3 0 327 0C299.7 0 272.3 0 245.2 0C218 0 191 0 163.8 0C136.7 0 109.3 0 82 0C54.7 0 27.3 0 13.7 0L0 0Z" fill="#a067ff"></path><path d="M0 331L13.7 321C27.3 311 54.7 291 82 277C109.3 263 136.7 255 163.8 249C191 243 218 239 245.2 241C272.3 243 299.7 251 327 253C354.3 255 381.7 251 409 257C436.3 263 463.7 279 491 293C518.3 307 545.7 319 573 318C600.3 317 627.7 303 654.8 293C682 283 709 277 736.2 271C763.3 265 790.7 259 818 247C845.3 235 872.7 217 886.3 208L900 199L900 137L886.3 146C872.7 155 845.3 173 818 181C790.7 189 763.3 187 736.2 194C709 201 682 217 654.8 222C627.7 227 600.3 221 573 218C545.7 215 518.3 215 491 209C463.7 203 436.3 191 409 185C381.7 179 354.3 179 327 175C299.7 171 272.3 163 245.2 157C218 151 191 147 163.8 156C136.7 165 109.3 187 82 201C54.7 215 27.3 221 13.7 224L0 227Z" fill="#8642ff"></path><path d="M0 415L13.7 414C27.3 413 54.7 411 82 395C109.3 379 136.7 349 163.8 338C191 327 218 335 245.2 337C272.3 339 299.7 335 327 336C354.3 337 381.7 343 409 353C436.3 363 463.7 377 491 391C518.3 405 545.7 419 573 430C600.3 441 627.7 449 654.8 431C682 413 709 369 736.2 349C763.3 329 790.7 333 818 321C845.3 309 872.7 281 886.3 267L900 253L900 197L886.3 206C872.7 215 845.3 233 818 245C790.7 257 763.3 263 736.2 269C709 275 682 281 654.8 291C627.7 301 600.3 315 573 316C545.7 317 518.3 305 491 291C463.7 277 436.3 261 409 255C381.7 249 354.3 253 327 251C299.7 249 272.3 241 245.2 239C218 237 191 241 163.8 247C136.7 253 109.3 261 82 275C54.7 289 27.3 309 13.7 319L0 329Z" fill="#6600ff"></path><path d="M0 481L13.7 476C27.3 471 54.7 461 82 450C109.3 439 136.7 427 163.8 415C191 403 218 391 245.2 391C272.3 391 299.7 403 327 405C354.3 407 381.7 399 409 408C436.3 417 463.7 443 491 462C518.3 481 545.7 493 573 500C600.3 507 627.7 509 654.8 493C682 477 709 443 736.2 426C763.3 409 790.7 409 818 394C845.3 379 872.7 349 886.3 334L900 319L900 251L886.3 265C872.7 279 845.3 307 818 319C790.7 331 763.3 327 736.2 347C709 367 682 411 654.8 429C627.7 447 600.3 439 573 428C545.7 417 518.3 403 491 389C463.7 375 436.3 361 409 351C381.7 341 354.3 335 327 334C299.7 333 272.3 337 245.2 335C218 333 191 325 163.8 336C136.7 347 109.3 377 82 393C54.7 409 27.3 411 13.7 412L0 413Z" fill="#5802dc"></path><path d="M0 601L13.7 601C27.3 601 54.7 601 82 601C109.3 601 136.7 601 163.8 601C191 601 218 601 245.2 601C272.3 601 299.7 601 327 601C354.3 601 381.7 601 409 601C436.3 601 463.7 601 491 601C518.3 601 545.7 601 573 601C600.3 601 627.7 601 654.8 601C682 601 709 601 736.2 601C763.3 601 790.7 601 818 601C845.3 601 872.7 601 886.3 601L900 601L900 317L886.3 332C872.7 347 845.3 377 818 392C790.7 407 763.3 407 736.2 424C709 441 682 475 654.8 491C627.7 507 600.3 505 573 498C545.7 491 518.3 479 491 460C463.7 441 436.3 415 409 406C381.7 397 354.3 405 327 403C299.7 401 272.3 389 245.2 389C218 389 191 401 163.8 413C136.7 425 109.3 437 82 448C54.7 459 27.3 469 13.7 474L0 479Z" fill="#4b03ba"></path></svg>